HIERARCHY
ROOT Hips
{
  OFFSET 49.7681 86.4544 5.26841
  CHANNELS 6 Xposition Yposition Zposition Zrotation Xrotation Yrotation
  JOINT spine
  {
    OFFSET 0 6.84637 0.3937
    CHANNELS 3 Zrotation Xrotation Yrotation
    JOINT spine1
    {
      OFFSET 0 9.49621 0
      CHANNELS 3 Zrotation Xrotation Yrotation
      JOINT spine2
      {
        OFFSET 0 9.09909 0
        CHANNELS 3 Zrotation Xrotation Yrotation
        JOINT Neck
        {
          OFFSET 0 23.3612 1.11378
          CHANNELS 3 Zrotation Xrotation Yrotation
          JOINT Head
          {
            OFFSET 0 7.05802 0
            CHANNELS 3 Zrotation Xrotation Yrotation
            End Site
            {
              OFFSET 0 17.0844 -5.63419
            }
          }
        }
        JOINT RightShoulder
        {
          OFFSET -3.83136 9.82631 -0.533491
          CHANNELS 3 Zrotation Xrotation Yrotation
          JOINT RightArm
          {
            OFFSET 0 12.8881 0
            CHANNELS 3 Zrotation Xrotation Yrotation
            JOINT RightArmRoll
            {
              OFFSET 0 6.50617 0
              CHANNELS 3 Zrotation Xrotation Yrotation
              JOINT RightForeArm
              {
                OFFSET 0 18.9501 0
                CHANNELS 3 Zrotation Xrotation Yrotation
                JOINT RightForeArmRoll
                {
                  OFFSET 0 7.30092 0
                  CHANNELS 3 Zrotation Xrotation Yrotation
                  JOINT RightHand
                  {
                    OFFSET 0 14.6514 0
                    CHANNELS 3 Zrotation Xrotation Yrotation
                    End Site
                    {
                      OFFSET 0 0 0
                    }
                  }
                }
              }
            }
          }
        }
        JOINT LeftShoulder
        {
          OFFSET 3.83136 9.82631 -0.533491
          CHANNELS 3 Zrotation Xrotation Yrotation
          JOINT LeftArm
          {
            OFFSET 0 12.8881 0
            CHANNELS 3 Zrotation Xrotation Yrotation
            JOINT LeftArmRoll
            {
              OFFSET 0 6.50617 0
              CHANNELS 3 Zrotation Xrotation Yrotation
              JOINT LeftForeArm
              {
                OFFSET 0 18.9501 0
                CHANNELS 3 Zrotation Xrotation Yrotation
                JOINT LeftForeArmRoll
                {
                  OFFSET 0 7.30092 0
                  CHANNELS 3 Zrotation Xrotation Yrotation
                  JOINT LeftHand
                  {
                    OFFSET 0 14.6514 0
                    CHANNELS 3 Zrotation Xrotation Yrotation
                    End Site
                    {
                      OFFSET 0 0 0
                    }
                  }
                }
              }
            }
          }
        }
      }
    }
  }
  JOINT RightUpLeg
  {
    OFFSET -6.06837 -1.11278 -0.933477
    CHANNELS 3 Zrotation Xrotation Yrotation
    JOINT RightUpLegRoll
    {
      OFFSET 0 17.1796 0
      CHANNELS 3 Zrotation Xrotation Yrotation
      JOINT RightLeg
      {
        OFFSET 0 -21.2743 0
        CHANNELS 3 Zrotation Xrotation Yrotation
        JOINT RightLegRoll
        {
          OFFSET 0 21.3439 0
          CHANNELS 3 Zrotation Xrotation Yrotation
          JOINT RightFoot
          {
            OFFSET 0 17.7652 0
            CHANNELS 3 Zrotation Xrotation Yrotation
            JOINT RightToeBase
            {
              OFFSET 0 14.8508 0
              CHANNELS 3 Zrotation Xrotation Yrotation
              End Site
              {
                OFFSET 0.0062947 7.19213 -0.829005
              }
            }
          }
        }
      }
    }
  }
  JOINT LeftUpLeg
  {
    OFFSET 6.06837 -1.11278 -0.933477
    CHANNELS 3 Zrotation Xrotation Yrotation
    JOINT LeftUpLegRoll
    {
      OFFSET 0 17.1797 0
      CHANNELS 3 Zrotation Xrotation Yrotation
      JOINT LeftLeg
      {
        OFFSET 0 21.2742 0
        CHANNELS 3 Zrotation Xrotation Yrotation
        JOINT LeftLegRoll
        {
          OFFSET 0 21.5412 0
          CHANNELS 3 Zrotation Xrotation Yrotation
          JOINT LeftFoot
          {
            OFFSET 0 17.5679 0
            CHANNELS 3 Zrotation Xrotation Yrotation
            JOINT LeftToeBase
            {
              OFFSET 0 14.8508 0
              CHANNELS 3 Zrotation Xrotation Yrotation
              End Site
              {
                OFFSET -0.0282102 7.19213 -0.829005
              }
            }
          }
        }
      }
    }
  }
}
MOTION
Frames: 10
Frame Time: 0.00208333
49.8199 86.4049 3.07563 0.0143781 -4.12088 -1.10502 1.5068 -1.53718 1.22935 3.03031 0.957657 2.30258 3.005 2.60087 2.253 -18.7124 3.57394 7.05333 5.34412 13.0665 2.79001 44.8964 -4.64765 -1.80645 157.485 52.3539 -48.8562 9.4874e-007 -2.74218e-006 -5.10039e-006 23.5246 9.72848 -1.16006 -1.96197e-007 -1.04146e-005 -3.00236 8.02891 -4.95144 0.697688 -77.1282 -7.41224 5.16573 -147.983 56.603 36.1722 -7.95139e-016 -1.59028e-014 -1.39149e-014 -28.396 0.204842 -0.477956 2.02443e-005 -6.76884e-006 3.04859 -8.02917 -4.95145 -0.697663 -179.142 13.154 -2.59657 180 7.01458e-015 178.589 175.943 24.5364 -179.505 -4.59476e-006 -1.63367e-006 0.764911 -24.4353 70.5275 22.1709 8.13649 25.2326 -3.48773 -176.909 11.2063 -0.935019 4.54188e-006 -4.6773e-006 -0.907988 -1.6269 -26.4017 0.535225 3.03243e-007 -1.62171e-006 -0.538885 22.6668 74.0698 -26.0236 -8.13649 25.2327 3.48773 
49.82 86.4074 3.08448 0.0162113 -4.11439 -1.11036 1.50681 -1.53795 1.23005 3.03025 0.956132 2.304 3.00492 2.59934 2.25442 -18.7166 3.56782 7.04698 5.34438 13.0641 2.78367 44.8943 -4.65518 -1.81238 157.453 52.355 -48.859 9.4874e-007 -2.74218e-006 -5.10039e-006 23.522 9.77194 -1.16868 -1.96197e-007 -1.04146e-005 -3.00236 8.02891 -4.95144 0.697688 -77.1332 -7.41267 5.16606 -147.903 56.6603 36.0192 -1.59028e-015 -3.18055e-015 -1.15295e-014 -28.3032 0.204592 -0.458192 2.02444e-005 -6.76884e-006 3.04923 -8.02917 -4.95145 -0.697663 -179.145 13.1621 -2.59677 180 7.01458e-015 178.589 175.945 24.5412 -179.505 -4.59476e-006 -1.63367e-006 0.764968 -24.436 70.5306 22.1743 8.13649 25.2326 -3.48773 -176.912 11.2093 -0.932465 4.54188e-006 -4.6773e-006 -0.908095 -1.62747 -26.401 0.534935 3.03243e-007 -1.62171e-006 -0.53889 22.6709 74.0726 -26.0272 -8.13649 25.2327 3.48773 
49.8108 86.4114 3.09446 0.0177821 -4.10744 -1.11593 1.50694 -1.53888 1.23076 3.03053 0.954293 2.30544 3.00516 2.5975 2.25585 -18.7214 3.56201 7.04036 5.34484 13.0612 2.7769 44.8909 -4.66382 -1.8191 157.422 52.3546 -48.869 9.4874e-007 -2.74218e-006 -5.10039e-006 23.5226 9.81712 -1.17727 -1.96197e-007 -1.04146e-005 -3.00236 8.02891 -4.95144 0.697688 -77.1383 -7.41343 5.16653 -147.822 56.7188 35.8646 3.97569e-015 -3.18055e-015 -1.19271e-015 -28.2099 0.204402 -0.438128 2.02443e-005 -6.76884e-006 3.0499 -8.02917 -4.95145 -0.697663 -179.147 13.1717 -2.59793 180 7.01458e-015 178.589 175.947 24.5479 -179.506 -4.59476e-006 -1.63367e-006 0.765012 -24.4362 70.5344 22.1784 8.13649 25.2326 -3.48773 -176.915 11.2132 -0.930044 4.54188e-006 -4.6773e-006 -0.908201 -1.62803 -26.4014 0.534615 3.03243e-007 -1.62171e-006 -0.538896 22.6755 74.076 -26.0316 -8.13649 25.2327 3.48773 
49.8083 86.4128 3.10115 0.019088 -4.10014 -1.12173 1.50719 -1.53994 1.2315 3.03111 0.952187 2.30692 3.0057 2.59539 2.25732 -18.7266 3.55652 7.03348 5.34541 13.0578 2.76972 44.8866 -4.67347 -1.82656 157.392 52.3531 -48.8841 9.4874e-007 -2.74218e-006 -5.10039e-006 23.5256 9.86385 -1.1859 -1.96197e-007 -1.04146e-005 -3.00235 8.02891 -4.95144 0.697688 -77.1434 -7.41446 5.16712 -147.739 56.7781 35.7087 6.36111e-015 -3.18055e-015 3.97569e-015 -28.1168 0.204265 -0.41804 2.02444e-005 -6.76884e-006 3.05058 -8.02917 -4.95145 -0.697663 -179.15 13.1824 -2.59995 180 7.01458e-015 178.589 175.951 24.556 -179.507 -4.59476e-006 -1.63367e-006 0.765045 -24.4361 70.5388 22.1832 8.13649 25.2326 -3.48773 -176.918 11.2179 -0.927782 4.54188e-006 -4.6773e-006 -0.908308 -1.62858 -26.4027 0.534269 3.03243e-007 -1.62171e-006 -0.538901 22.6805 74.0799 -26.0366 -8.13649 25.2327 3.48773 
49.8177 86.4127 3.09761 0.020127 -4.09262 -1.12774 1.50754 -1.54112 1.23228 3.03197 0.949858 2.30847 3.00651 2.59306 2.25886 -18.732 3.55141 7.0263 5.34598 13.0542 2.76215 44.8815 -4.68401 -1.83469 157.36 52.3508 -48.9022 9.4874e-007 -2.74218e-006 -5.10039e-006 23.5301 9.91194 -1.19461 -1.96197e-007 -1.04146e-005 -3.00235 8.02891 -4.95144 0.697688 -77.1484 -7.41567 5.16778 -147.653 56.8378 35.5518 3.97569e-015 -9.54166e-015 -3.57812e-015 -28.0245 0.204174 -0.398202 2.02444e-005 -6.76884e-006 3.05125 -8.02917 -4.95145 -0.697663 -179.152 13.1939 -2.6027 180 7.01458e-015 178.59 175.955 24.5651 -179.508 -4.59476e-006 -1.63367e-006 0.765067 -24.4357 70.5436 22.1885 8.13649 25.2326 -3.48773 -176.92 11.2232 -0.925703 4.54188e-006 -4.6773e-006 -0.908414 -1.62912 -26.4047 0.533905 3.03243e-007 -1.62171e-006 -0.538907 22.6859 74.0842 -26.042 -8.13649 25.2327 3.48773 
49.8235 86.3993 3.09616 0.0208967 -4.08498 -1.13397 1.50799 -1.54239 1.23312 3.03307 0.947353 2.31013 3.00756 2.59056 2.26049 -18.7375 3.54669 7.01882 5.34645 13.0504 2.75421 44.8761 -4.69535 -1.84343 157.328 52.3482 -48.9211 9.4874e-007 -2.74218e-006 -5.10039e-006 23.5353 9.96121 -1.20345 -1.96197e-007 -1.04146e-005 -3.00235 8.02891 -4.95144 0.697688 -77.1531 -7.41699 5.16848 -147.565 56.8975 35.3942 -7.95139e-016 6.36111e-015 -8.34896e-015 -27.9335 0.204122 -0.378889 2.02444e-005 -6.76884e-006 3.05191 -8.02917 -4.95145 -0.697663 -179.153 13.2059 -2.60606 180 7.01458e-015 178.59 175.959 24.575 -179.509 -4.59476e-006 -1.63367e-006 0.765078 -24.435 70.5488 22.1941 8.13649 25.2326 -3.48773 -176.922 11.2287 -0.92383 4.54188e-006 -4.6773e-006 -0.90852 -1.62966 -26.4073 0.53353 3.03243e-007 -1.62171e-006 -0.538912 22.6917 74.0888 -26.0479 -8.13649 25.2327 3.48773 
49.825 86.4057 3.10162 0.021395 -4.07734 -1.14041 1.50853 -1.54372 1.23402 3.03439 0.944716 2.31192 3.00882 2.58792 2.26225 -18.7428 3.54242 7.01102 5.34673 13.0464 2.74592 44.8707 -4.70737 -1.85272 157.293 52.3457 -48.9387 9.4874e-007 -2.74218e-006 -5.10039e-006 23.5404 10.0115 -1.21249 -1.96197e-007 -1.04146e-005 -3.00235 8.02891 -4.95144 0.697688 -77.1576 -7.41834 5.16918 -147.473 56.9568 35.2362 7.15625e-015 -9.54166e-015 1.98785e-015 -27.8444 0.204101 -0.360376 2.02444e-005 -6.76884e-006 3.05253 -8.02917 -4.95145 -0.697663 -179.155 13.2181 -2.60992 180 7.01458e-015 178.59 175.964 24.5853 -179.511 -4.59476e-006 -1.63367e-006 0.76508 -24.4341 70.5542 22.1998 8.13649 25.2326 -3.48773 -176.924 11.2344 -0.922188 4.54188e-006 -4.6773e-006 -0.908626 -1.63017 -26.4102 0.533149 3.03243e-007 -1.62171e-006 -0.538917 22.6976 74.0936 -26.0542 -8.13649 25.2327 3.48773 
49.8277 86.4125 3.10008 0.0216192 -4.0698 -1.14706 1.50915 -1.5451 1.23501 3.0359 0.941995 2.31386 3.01027 2.58519 2.26416 -18.7478 3.53861 7.00289 5.34673 13.0425 2.73729 44.8655 -4.71998 -1.86251 157.255 52.3438 -48.9527 9.4874e-007 -2.74218e-006 -5.10039e-006 23.5446 10.0626 -1.22177 -1.96197e-007 -1.04146e-005 -3.00235 8.02891 -4.95144 0.697688 -77.1616 -7.41964 5.16985 -147.377 57.0153 35.0781 5.56597e-015 1.59028e-014 3.18055e-015 -27.7579 0.204103 -0.342939 2.02444e-005 -6.76884e-006 3.05311 -8.02917 -4.95145 -0.697663 -179.155 13.2302 -2.61415 180 7.01458e-015 178.59 175.969 24.5957 -179.512 -4.59476e-006 -1.63367e-006 0.765073 -24.433 70.5596 22.2056 8.13649 25.2326 -3.48773 -176.925 11.2399 -0.920802 4.54188e-006 -4.6773e-006 -0.90873 -1.63066 -26.4134 0.532768 3.03243e-007 -1.62171e-006 -0.538923 22.7038 74.0986 -26.0607 -8.13649 25.2327 3.48773 
49.8182 86.4092 3.11731 0.0215672 -4.06249 -1.15389 1.50984 -1.5465 1.23609 3.03756 0.939233 2.31599 3.01187 2.58243 2.26625 -18.7523 3.5353 6.9944 5.34633 13.0387 2.72835 44.861 -4.73306 -1.87273 157.212 52.3427 -48.961 9.4874e-007 -2.74218e-006 -5.10039e-006 23.547 10.1145 -1.23134 -1.96197e-007 -1.04146e-005 -3.00235 8.02891 -4.95144 0.697688 -77.1651 -7.42083 5.17045 -147.276 57.0727 34.9201 2.38542e-015 -3.18055e-015 -1.03368e-014 -27.6745 0.204123 -0.326851 2.02444e-005 -6.76884e-006 3.05363 -8.02917 -4.95145 -0.697663 -179.156 13.2418 -2.61865 180 7.01458e-015 178.59 175.973 24.6057 -179.514 -4.59476e-006 -1.63367e-006 0.765059 -24.4318 70.5648 22.2113 8.13649 25.2326 -3.48773 -176.926 11.2452 -0.919696 4.54188e-006 -4.6773e-006 -0.908834 -1.63113 -26.4166 0.532395 3.03243e-007 -1.62171e-006 -0.538928 22.71 74.1038 -26.0674 -8.13649 25.2327 3.48773 
49.822 86.4028 3.11622 0.0212363 -4.05552 -1.16092 1.51059 -1.5479 1.23728 3.03936 0.936478 2.31833 3.01361 2.57967 2.26856 -18.756 3.53253 6.98555 5.34546 13.0352 2.71912 44.8574 -4.74651 -1.88332 157.165 52.343 -48.9615 9.4874e-007 -2.74218e-006 -5.10039e-006 23.5469 10.1668 -1.24126 -1.96197e-007 -1.04146e-005 -3.00234 8.02891 -4.95144 0.697688 -77.168 -7.42181 5.17095 -147.171 57.1286 34.7628 7.95139e-016 3.18055e-015 -7.95139e-015 -27.5949 0.204151 -0.312388 2.02443e-005 -6.76884e-006 3.05408 -8.02917 -4.95145 -0.697663 -179.156 13.2527 -2.62329 180 7.01459e-015 178.59 175.978 24.615 -179.515 -4.59476e-006 -1.63367e-006 0.765038 -24.4305 70.5699 22.2167 8.13649 25.2326 -3.48773 -176.927 11.2499 -0.918894 4.54188e-006 -4.6773e-006 -0.908937 -1.63156 -26.4197 0.532035 3.03243e-007 -1.62171e-006 -0.538934 22.7163 74.1089 -26.0742 -8.13649 25.2327 3.48773 
